<svg width="145" height="40" viewBox="0 0 145 40" fill="none" xmlns="http://www.w3.org/2000/svg">
<path fill-rule="evenodd" clip-rule="evenodd" d="M30.9538 27.2608C31.573 26.6974 31.8825 25.9055 31.8825 24.8851C31.8825 23.8646 31.573 23.073 30.9538 22.5093C30.3347 21.946 29.467 21.6643 28.3519 21.6643H26.9965V28.1058H28.3519C29.467 28.1058 30.3347 27.8241 30.9538 27.2608ZM34.0327 27.8268C33.5363 28.6825 32.822 29.3495 31.8909 29.8278C30.9594 30.3061 29.8634 30.5453 28.6028 30.5453H24.1351V19.2726H28.6028C29.8746 19.2726 30.973 19.5065 31.8993 19.9739C32.8251 20.4422 33.5363 21.1009 34.0327 21.9513C34.5288 22.8017 34.7773 23.7799 34.7773 24.8851C34.7773 25.9909 34.5288 26.9714 34.0327 27.8268Z" fill="#232323"/>
<path fill-rule="evenodd" clip-rule="evenodd" d="M36.3758 30.5451H39.2432V21.597H36.3758V30.5451ZM36.5771 18.0454C36.8901 17.7727 37.3037 17.6361 37.8179 17.6361C38.3321 17.6361 38.7457 17.7727 39.0587 18.0454C39.3717 18.318 39.5283 18.6627 39.5283 19.0797C39.5283 19.4859 39.3717 19.825 39.0587 20.098C38.7457 20.3703 38.3321 20.5066 37.8179 20.5066C37.3037 20.5066 36.8901 20.3703 36.5771 20.098C36.264 19.825 36.1075 19.4859 36.1075 19.0797C36.1075 18.6627 36.264 18.318 36.5771 18.0454Z" fill="#232323"/>
<path fill-rule="evenodd" clip-rule="evenodd" d="M43.4693 21.6364L45.701 27.0695L47.7828 21.6364H50.9305L45.1348 34.7272H42.0037L44.1855 30.1674L40.2883 21.6364H43.4693Z" fill="#232323"/>
<path fill-rule="evenodd" clip-rule="evenodd" d="M54.0318 24.4107C53.6568 24.7918 53.4698 25.3219 53.4698 26C53.4698 26.6781 53.6568 27.2075 54.0318 27.5893C54.4062 27.9707 54.9011 28.1614 55.5167 28.1614C56.1207 28.1614 56.6156 27.9654 57.0015 27.5734C57.3874 27.1814 57.58 26.6569 57.58 26C57.58 25.3321 57.3874 24.8053 57.0015 24.4183C56.6156 24.0316 56.1207 23.8382 55.5167 23.8382C54.9011 23.8382 54.4062 24.0292 54.0318 24.4107ZM56.4394 21.9155C56.9536 22.2231 57.3339 22.6412 57.58 23.171V21.5655H60.4325V30.4338H57.58V28.829C57.3339 29.3587 56.9536 29.7772 56.4394 30.0845C55.9246 30.3918 55.3094 30.5451 54.5935 30.5451C53.8218 30.5451 53.1314 30.3626 52.5219 29.9971C51.9123 29.6316 51.4313 29.1044 51.079 28.4157C50.7266 27.727 50.5505 26.9218 50.5505 26C50.5505 25.0676 50.7266 24.2597 51.079 23.576C51.4313 22.8929 51.9123 22.3684 52.5219 22.0029C53.1314 21.6373 53.8218 21.4542 54.5935 21.4542C55.3094 21.4542 55.9246 21.6082 56.4394 21.9155Z" fill="#232323"/>
<path fill-rule="evenodd" clip-rule="evenodd" d="M62.9108 30.5453H63.2756V19.2726H62.9108V30.5453Z" fill="#232323"/>
<path fill-rule="evenodd" clip-rule="evenodd" d="M72.5383 22.7513C73.2092 23.3735 73.5452 24.3112 73.5452 25.5655V30.5457H73.2316V25.5339C73.2316 24.4169 72.94 23.5658 72.3567 22.9805C71.7731 22.3956 70.9756 22.1031 69.9632 22.1031C68.9065 22.1031 68.0595 22.4328 67.4212 23.0912C66.7829 23.75 66.4638 24.7223 66.4638 26.0085V30.5457H66.1337V22.0082H66.4638V24.4114C66.6725 23.5474 67.0993 22.8992 67.7431 22.467C68.3868 22.0346 69.1269 21.8185 69.9632 21.8185C71.0087 21.8185 71.867 22.1294 72.5383 22.7513Z" fill="#232323"/>
<path fill-rule="evenodd" clip-rule="evenodd" d="M77.0272 22.3173V28.2985C77.0272 28.8153 77.0874 29.2105 77.2077 29.4848C77.328 29.7594 77.5194 29.9516 77.7819 30.0623C78.0448 30.1731 78.4108 30.2284 78.8815 30.2284H79.8163V30.5449H78.8483C78.0827 30.5449 77.5331 30.3761 77.1999 30.0386C76.8659 29.701 76.6991 29.1212 76.6991 28.2985V22.3173H75.2554V22.0008H76.6991V19.8177H77.0272V22.0008H79.8163V22.3173H77.0272Z" fill="#232323"/>
<path fill-rule="evenodd" clip-rule="evenodd" d="M83.9174 22.5505C83.311 22.8453 82.82 23.2929 82.4444 23.8933C82.0684 24.4937 81.8744 25.2384 81.8636 26.1286H89.7759C89.8317 25.2384 89.683 24.4937 89.3298 23.8933C88.9763 23.2929 88.4937 22.8453 87.882 22.5505C87.2704 22.2557 86.611 22.1083 85.9039 22.1083C85.1853 22.1083 84.5235 22.2557 83.9174 22.5505ZM88.4797 29.6986C89.1752 29.2055 89.596 28.5301 89.7419 27.6721H90.0786C89.9215 28.5837 89.4757 29.3207 88.7406 29.8836C88.0051 30.4461 87.0596 30.7275 85.9039 30.7275C85.0622 30.7275 84.3099 30.551 83.6477 30.1968C82.9855 29.8434 82.4665 29.3284 82.0908 28.6534C81.7145 27.9776 81.5269 27.1846 81.5269 26.273C81.5269 25.3621 81.7145 24.5684 82.0908 23.8933C82.4665 23.2176 82.9855 22.703 83.6477 22.3492C84.3099 21.9957 85.0622 21.8185 85.9039 21.8185C86.7902 21.8185 87.5481 21.9984 88.1766 22.3575C88.8051 22.7167 89.2793 23.1804 89.5992 23.7482C89.9187 24.3168 90.0786 24.9168 90.0786 25.5493C90.0786 25.871 90.0562 26.1604 90.0116 26.4181H81.8636C81.8744 27.3079 82.0684 28.053 82.4444 28.6534C82.82 29.2537 83.311 29.7013 83.9174 29.9962C84.5235 30.291 85.1853 30.4384 85.9039 30.4384C86.9249 30.4384 87.7835 30.1918 88.4797 29.6986Z" fill="#232323"/>
<path fill-rule="evenodd" clip-rule="evenodd" d="M96.1598 21.8185V22.1666H96.013C95.0886 22.1666 94.3029 22.4275 93.6562 22.9492C93.0091 23.471 92.6853 24.3112 92.6853 25.4706V30.5457H92.359V22.0082H92.6853V24.0793C93.0333 22.5724 94.1914 21.8185 96.1598 21.8185Z" fill="#232323"/>
<path fill-rule="evenodd" clip-rule="evenodd" d="M99.9156 22.6068C99.3117 22.9391 98.8436 23.4189 98.5112 24.0461C98.1788 24.6732 98.0126 25.4157 98.0126 26.273C98.0126 27.131 98.1788 27.8734 98.5112 28.5006C98.8436 29.1278 99.3117 29.6075 99.9156 29.9399C100.519 30.2722 101.231 30.4384 102.051 30.4384C102.826 30.4384 103.522 30.2638 104.137 29.9154C104.752 29.5673 105.234 29.0792 105.583 28.452C105.932 27.8248 106.106 27.0988 106.106 26.273C106.106 25.4475 105.932 24.7215 105.583 24.094C105.234 23.4668 104.752 22.979 104.137 22.6306C103.522 22.2825 102.826 22.1083 102.051 22.1083C101.231 22.1083 100.519 22.2745 99.9156 22.6068ZM104.669 22.6229C105.383 23.1589 105.863 23.8608 106.106 24.7295V21.9311H106.422V30.6149H106.106V27.8171C105.863 28.6855 105.383 29.3877 104.669 29.9238C103.954 30.4598 103.082 30.7275 102.051 30.7275C101.198 30.7275 100.439 30.5483 99.7743 30.1891C99.1095 29.83 98.5943 29.315 98.2287 28.645C97.8631 27.9753 97.6802 27.1846 97.6802 26.273C97.6802 25.3621 97.8631 24.5714 98.2287 23.901C98.5943 23.2313 99.1095 22.7167 99.7743 22.3575C100.439 21.9984 101.198 21.8185 102.051 21.8185C103.082 21.8185 103.954 22.0868 104.669 22.6229Z" fill="#232323"/>
<path fill-rule="evenodd" clip-rule="evenodd" d="M115.916 22.6631C116.651 23.2259 117.097 23.963 117.254 24.8743H116.918C116.772 24.0166 116.351 23.3408 115.655 22.848C114.959 22.3549 114.1 22.1083 113.08 22.1083C112.35 22.1083 111.679 22.2611 111.068 22.5666C110.456 22.8721 109.965 23.3358 109.595 23.9573C109.224 24.5794 109.039 25.351 109.039 26.273C109.039 27.1953 109.224 27.9672 109.595 28.5887C109.965 29.2108 110.456 29.6745 111.068 29.9801C111.679 30.2856 112.35 30.4384 113.08 30.4384C114.1 30.4384 114.959 30.1918 115.655 29.6986C116.351 29.2055 116.772 28.5301 116.918 27.6721H117.254C117.097 28.5837 116.651 29.3207 115.916 29.8836C115.181 30.4461 114.235 30.7275 113.08 30.7275C112.238 30.7275 111.485 30.551 110.823 30.1968C110.161 29.8434 109.642 29.3288 109.266 28.6534C108.89 27.9776 108.702 27.1846 108.702 26.273C108.702 25.3621 108.89 24.5684 109.266 23.8933C109.642 23.2176 110.161 22.703 110.823 22.3492C111.485 21.9957 112.238 21.8185 113.08 21.8185C114.235 21.8185 115.181 22.0999 115.916 22.6631Z" fill="#232323"/>
<path fill-rule="evenodd" clip-rule="evenodd" d="M120.356 22.3173V28.2985C120.356 28.8153 120.416 29.2105 120.537 29.4848C120.657 29.7594 120.848 29.9516 121.111 30.0623C121.374 30.1731 121.74 30.2284 122.211 30.2284H123.145V30.5449H122.177C121.412 30.5449 120.862 30.3761 120.529 30.0386C120.195 29.701 120.028 29.1212 120.028 28.2985V22.3173H118.584V22.0008H120.028V19.8177H120.356V22.0008H123.145V22.3173H120.356Z" fill="#232323"/>
<path fill-rule="evenodd" clip-rule="evenodd" d="M125.148 30.545H125.514V21.9609H125.148V30.545ZM124.993 19.0283C125.084 18.9488 125.197 18.9088 125.331 18.9088C125.465 18.9088 125.578 18.9488 125.669 19.0283C125.761 19.1078 125.806 19.2111 125.806 19.3383C125.806 19.4655 125.761 19.5688 125.669 19.6483C125.578 19.7278 125.465 19.7675 125.331 19.7675C125.197 19.7675 125.084 19.7278 124.993 19.6483C124.901 19.5688 124.856 19.4655 124.856 19.3383C124.856 19.2111 124.901 19.1078 124.993 19.0283Z" fill="#232323"/>
<path fill-rule="evenodd" clip-rule="evenodd" d="M131.325 29.991L134.938 21.9995H135.308L131.443 30.5448H131.191L127.326 21.9995H127.696L131.325 29.991Z" fill="#232323"/>
<path fill-rule="evenodd" clip-rule="evenodd" d="M138.839 22.5505C138.232 22.8453 137.741 23.2929 137.366 23.8933C136.99 24.4937 136.796 25.2384 136.785 26.1286H144.697C144.753 25.2384 144.604 24.4937 144.251 23.8933C143.898 23.2929 143.415 22.8453 142.803 22.5505C142.192 22.2557 141.532 22.1083 140.825 22.1083C140.107 22.1083 139.445 22.2557 138.839 22.5505ZM143.401 29.6986C144.097 29.2055 144.517 28.5301 144.663 27.6721H145C144.843 28.5837 144.397 29.3207 143.662 29.8836C142.927 30.4461 141.981 30.7275 140.825 30.7275C139.984 30.7275 139.231 30.551 138.569 30.1968C137.907 29.8434 137.388 29.3284 137.012 28.6534C136.636 27.9776 136.448 27.1846 136.448 26.273C136.448 25.3621 136.636 24.5684 137.012 23.8933C137.388 23.2176 137.907 22.703 138.569 22.3492C139.231 21.9957 139.984 21.8185 140.825 21.8185C141.712 21.8185 142.47 21.9984 143.098 22.3575C143.727 22.7167 144.201 23.1804 144.521 23.7482C144.84 24.3168 145 24.9168 145 25.5493C145 25.871 144.978 26.1604 144.933 26.4181H136.785C136.796 27.3079 136.99 28.053 137.366 28.6534C137.741 29.2537 138.232 29.7013 138.839 29.9962C139.445 30.291 140.107 30.4384 140.825 30.4384C141.846 30.4384 142.705 30.1918 143.401 29.6986Z" fill="#232323"/>
<path fill-rule="evenodd" clip-rule="evenodd" d="M14.2273 35.8175C14.2273 35.8175 15.6668 32.4927 14.6437 30.256C13.6202 28.0189 12.7951 24.5099 13.2326 22.7449C13.6705 20.9799 14.8583 17.8594 18.4553 16.7267C18.4553 16.7267 16.3928 21.1682 18.9102 26.4888C21.4279 31.8091 16.1057 34.7174 14.2273 35.8175Z" fill="#00A651"/>
<path fill-rule="evenodd" clip-rule="evenodd" d="M10.9297 25.818C10.9297 25.818 10.2837 21.1321 12.6233 18.5155C14.9629 15.8988 17.5464 11.5839 17.6581 9.18479C17.7698 6.78498 17.3912 2.43131 12.8446 0C12.8446 0 13.9015 6.2966 8.22067 12.4984C2.5402 18.6998 8.76339 23.891 10.9297 25.818Z" fill="#3B95CB"/>
<path fill-rule="evenodd" clip-rule="evenodd" d="M10.121 40.0001C10.121 40.0001 9.58686 35.6273 6.98826 33.4114C4.38966 31.1955 1.19042 27.4353 0.539988 25.233C-0.110793 23.0307 -0.795698 18.9861 2.51427 16.3639C2.51427 16.3639 3.07138 22.2562 9.34556 27.4959C15.6197 32.7359 11.5204 38.0422 10.121 40.0001Z" fill="#006839"/>
</svg>
