<svg width="40" height="40" viewBox="0 0 40 40" fill="none" xmlns="http://www.w3.org/2000/svg">
<g id="Group 28">
<rect id="Logo" width="40" height="40" rx="20" fill="white"/>
<g id="Group 27">
<path id="Fill 18" fill-rule="evenodd" clip-rule="evenodd" d="M23.8102 32.5185C23.8102 32.5185 24.904 29.9922 24.1266 28.2927C23.349 26.5929 22.722 23.9267 23.0545 22.5856C23.3872 21.2445 24.2897 18.8734 27.0228 18.0128C27.0228 18.0128 25.4556 21.3875 27.3684 25.4303C29.2815 29.4728 25.2375 31.6826 23.8102 32.5185Z" fill="#00A651"/>
<path id="Fill 19" fill-rule="evenodd" clip-rule="evenodd" d="M21.3046 24.9206C21.3046 24.9206 20.8137 21.3602 22.5914 19.372C24.3691 17.3838 26.3321 14.1052 26.417 12.2823C26.5018 10.4588 26.2142 7.15081 22.7596 5.30344C22.7596 5.30344 23.5626 10.0878 19.2462 14.8C14.93 19.512 19.6586 23.4564 21.3046 24.9206Z" fill="#3B95CB"/>
<path id="Fill 20" fill-rule="evenodd" clip-rule="evenodd" d="M20.6902 35.6965C20.6902 35.6965 20.2843 32.374 18.3099 30.6903C16.3354 29.0066 13.9045 26.1495 13.4103 24.4761C12.9158 22.8028 12.3954 19.7295 14.9104 17.7371C14.9104 17.7371 15.3337 22.2143 20.101 26.1955C24.8683 30.177 21.7535 34.2089 20.6902 35.6965Z" fill="#006839"/>
</g>
</g>
</svg>
